<svg xmlns="http://www.w3.org/2000/svg" width="45" height="100" viewBox="0 0 45 100">
  <defs>
    <style>
      .cls-1 {
        fill: #fff;
        fill-rule: evenodd;
      }
    </style>
  </defs>
  <path id="모양_1" data-name="모양 1" class="cls-1" d="M33.443,60.775V11.808a8.823,8.823,0,0,0-8.835-8.791H19.4a8.823,8.823,0,0,0-8.835,8.791V60.775A19.937,19.937,0,1,0,42.012,77.089,20.126,20.126,0,0,0,33.443,60.775ZM25.429,40.64H30.68v7.8H25.429v-7.8ZM22,94.243A17.13,17.13,0,0,1,12.7,62.66l0.632-.407V11.808A6.063,6.063,0,0,1,19.4,5.767h5.2a6.063,6.063,0,0,1,6.072,6.041V16.8H23.859a1.375,1.375,0,1,0,0,2.75H30.68v7.8H23.859a1.375,1.375,0,1,0,0,2.75H30.68v7.8H25.429V33.807a0.821,0.821,0,0,0-.821-0.816H19.4a0.822,0.822,0,0,0-.822.816V65.656a11.992,11.992,0,1,0,6.847,0V51.187H30.68V62.253l0.631,0.407A17.13,17.13,0,0,1,22,94.243Z"/>
</svg>
