<svg xmlns="http://www.w3.org/2000/svg" width="45" height="100" viewBox="0 0 45 100">
  <defs>
    <style>
      .cls-1 {
        fill: #fff;
        fill-rule: evenodd;
      }
    </style>
  </defs>
  <path id="모양_6" data-name="모양 6" class="cls-1" d="M36.408,46.721V27.407h-8.49a5.757,5.757,0,0,0-3.959-4.57V6.957L29.7,13.1l1.589-1.7L22.5,1.988,13.7,11.4l1.589,1.7,5.74-6.145v15.88a5.757,5.757,0,0,0-3.958,4.569H8.585V46.721H1V96.988H43.992V46.721H36.408ZM33.482,93.856H11.51V30.539h5.813A5.547,5.547,0,0,0,22.5,34.433a5.547,5.547,0,0,0,5.173-3.894h5.813V93.856ZM19.9,28.517a2.93,2.93,0,0,1,.219-1.11,2.531,2.531,0,0,1,4.763,0,2.768,2.768,0,0,1,.176,1.567,2.832,2.832,0,0,1-.78,1.565,2.452,2.452,0,0,1-3.553,0,2.833,2.833,0,0,1-.78-1.565A2.951,2.951,0,0,1,19.9,28.517ZM3.926,93.856v-44H8.585v44H3.926Zm37.14,0H36.408v-44h4.658v44ZM26.3,60.1a2.285,2.285,0,0,0-1.838.791,4.743,4.743,0,0,0,0,4.868,2.312,2.312,0,0,0,1.862.79,2.268,2.268,0,0,0,1.823-.79,4.744,4.744,0,0,0,0-4.868A2.294,2.294,0,0,0,26.3,60.1Zm0.521,4.81a0.6,0.6,0,0,1-.536.3,0.6,0.6,0,0,1-.536-0.307,3.3,3.3,0,0,1-.256-1.59,3.344,3.344,0,0,1,.256-1.6,0.6,0.6,0,0,1,.536-0.3,0.613,0.613,0,0,1,.544.3,3.435,3.435,0,0,1,.248,1.6A3.344,3.344,0,0,1,26.818,64.909ZM24.711,53.65L18.641,66.524h1.617L26.281,53.65h-1.57Zm-3.583,3.221a3.684,3.684,0,0,0-.673-2.434,2.315,2.315,0,0,0-1.861-.786,2.266,2.266,0,0,0-1.823.791,3.685,3.685,0,0,0-.672,2.43,3.684,3.684,0,0,0,.672,2.433,2.316,2.316,0,0,0,1.861.786,2.269,2.269,0,0,0,1.822-.789A3.69,3.69,0,0,0,21.128,56.871Zm-1.99,1.581a0.615,0.615,0,0,1-.544.3,0.607,0.607,0,0,1-.536-0.3,5.109,5.109,0,0,1,0-3.2,0.633,0.633,0,0,1,1.081.008,3.392,3.392,0,0,1,.248,1.59A3.443,3.443,0,0,1,19.139,58.452Z"/>
</svg>
